<?xml version="1.0" encoding="UTF-8"?>
<svg id="Layer_2" data-name="Layer 2" xmlns="http://www.w3.org/2000/svg" viewBox="0 0 1272.3 419.52">
  <defs>
    <style>
      .cls-1, .cls-2 {
        stroke-width: 0px;
      }

      .cls-2 {
        fill: #fff;
      }
    </style>
  </defs>
  <g id="Layer_1-2" data-name="Layer 1">
    <g>
      <g>
        <g>
          <path class="cls-2" d="m6.19,259.98c-4.28,0-6.34-2.06-6.18-6.18v-1.9c0-2.22.51-3.81,1.55-4.76,1.03-.95,2.5-1.67,4.4-2.14,2.85-.95,4.56-2.62,5.11-5,.55-2.38.83-5.23.83-8.56V28.54c0-3.17-.32-5.87-.95-8.09-.64-2.22-2.3-3.81-5-4.76-1.9-.48-3.37-1.23-4.4-2.26C.52,12.41,0,10.86,0,8.8v-1.9C0,2.62,2.07.56,6.19.71h56.61c2.69,0,4.52,1.19,5.47,3.57,8.72,18.4,16.77,38.18,24.14,59.35,7.37,21.17,13.32,44.24,17.84,69.22,4.52,24.98,6.78,52.29,6.78,81.94h2.38c0-29.65,2.26-56.97,6.78-81.94s10.47-48.05,17.84-69.22c7.37-21.17,15.42-40.95,24.14-59.35,1.11-2.38,2.93-3.57,5.47-3.57h56.37c4.28,0,6.34,2.06,6.18,6.18v1.9c0,2.06-.52,3.61-1.55,4.64s-2.5,1.78-4.4,2.26c-2.85.95-4.56,2.62-5.11,5-.56,2.38-.83,5.23-.83,8.56v202.9c0,3.01.32,5.67.95,7.97.63,2.3,2.3,3.92,5,4.88,1.9.48,3.37,1.19,4.4,2.14,1.03.95,1.55,2.54,1.55,4.76v1.9c0,4.28-2.06,6.34-6.18,6.18h-58.99c-4.28,0-6.34-2.06-6.18-6.18v-1.9c0-2.22.51-3.81,1.55-4.76,1.03-.95,2.5-1.67,4.4-2.14,2.85-.95,4.56-2.62,5.11-5,.55-2.38.83-5.23.83-8.56.63-35.68,1.9-61.33,3.81-76.95,1.9-15.62,3.72-30.45,5.47-44.48,1.74-14.03,2.62-38.57,2.62-73.62h-2.38l-48.76,209.32c-.8,3.17-2.78,4.76-5.95,4.76h-26.88c-3.01,0-5-1.58-5.95-4.76L49.96,36.39h-2.38c0,35.05.91,59.7,2.74,73.98,1.82,14.27,3.65,29.22,5.47,44.84,1.82,15.62,3.05,41.03,3.69,76.23,0,2.22.08,4.25.24,6.07.16,1.82.67,3.37,1.55,4.64.87,1.27,2.26,2.22,4.16,2.85,1.9.48,3.37,1.19,4.4,2.14,1.03.95,1.55,2.54,1.55,4.76v1.9c0,4.28-2.06,6.34-6.18,6.18H6.19Z"/>
          <path class="cls-2" d="m253.81,259.98c-4.28,0-6.34-2.06-6.18-6.18v-1.9c0-2.22.51-3.81,1.55-4.76,1.03-.95,2.5-1.67,4.4-2.14,2.85-.95,4.56-2.62,5.11-5,.55-2.38.83-5.23.83-8.56V94.91c0-3.17-.32-5.87-.95-8.09-.64-2.22-2.3-3.81-5-4.76-1.9-.48-3.37-1.23-4.4-2.26-1.03-1.03-1.55-2.58-1.55-4.64v-3.09c0-3.33,1.67-5.31,5-5.95l42.58-8.09c.79-.16,1.51-.24,2.14-.24,3.33,0,5,2.06,5,6.18v167.45c0,2.22.08,4.25.24,6.07.16,1.82.67,3.37,1.55,4.64.87,1.27,2.26,2.22,4.16,2.85,1.9.48,3.37,1.19,4.4,2.14,1.03.95,1.55,2.54,1.55,4.76v1.9c0,4.28-2.06,6.34-6.18,6.18h-54.23Zm49-224.78c0,4.28-2.06,6.34-6.18,6.18h-30.45c-4.28,0-6.34-2.06-6.18-6.18V6.9c0-4.28,2.06-6.34,6.18-6.18h30.45c4.28,0,6.34,2.06,6.18,6.18v28.31Z"/>
          <path class="cls-2" d="m337.77,259.98c-4.28,0-6.34-2.06-6.18-6.18v-1.9c0-2.22.51-3.81,1.55-4.76,1.03-.95,2.5-1.67,4.4-2.14,2.53-.79,4.16-2.34,4.88-4.64.71-2.3,1.07-5.27,1.07-8.92v-127.49h-18.55c-4.28,0-6.34-2.06-6.18-6.18v-11.42c0-4.28,2.06-6.34,6.18-6.18h37.34v-2.38c-7.3,0-14.15-1.46-20.58-4.4-6.42-2.93-11.66-7.17-15.7-12.73-4.04-5.55-6.07-12.21-6.07-19.98,0-9.99,3.13-17.96,9.4-23.91,6.26-5.95,13.87-10.23,22.83-12.84,8.96-2.62,17.48-3.92,25.57-3.92,9.35,0,17.48.64,24.38,1.9,6.9,1.27,12.73,3.13,17.48,5.59,4.76,2.46,8.56,5.35,11.42,8.68,2.85,3.33,4.91,7.06,6.18,11.18,1.27,4.12,1.9,8.48,1.9,13.08,0,5.39-.64,11.02-1.9,16.89-.79,3.01-2.78,4.52-5.95,4.52h-29.5c-4.28,0-6.34-2.06-6.18-6.18,0-5.55-.32-10.7-.95-15.46-.64-4.76-2.22-8.6-4.76-11.54-2.54-2.93-6.58-4.4-12.13-4.4-7.77,0-12.96,2.02-15.58,6.07-2.62,4.04-3.92,9.72-3.92,17.01,0,6.66,1.9,12.09,5.71,16.29,3.81,4.2,8.64,7.53,14.51,9.99,5.87,2.46,12.13,4.16,18.79,5.11s12.76,1.43,18.32,1.43c4.28,0,6.34,2.06,6.18,6.18v11.42c0,4.28-2.06,6.34-6.18,6.18h-29.26v127.97c0,3.49.39,6.34,1.19,8.56.79,2.22,2.38,3.73,4.76,4.52,1.9.48,3.37,1.19,4.4,2.14,1.03.95,1.55,2.54,1.55,4.76v1.9c0,4.28-2.06,6.34-6.18,6.18h-54.23Z"/>
          <path class="cls-2" d="m524.02,259.98c-1.9,0-3.01-.87-3.33-2.62v-2.85c0-5.07.95-9.87,2.85-14.39,1.9-4.52,3.01-9.24,3.33-14.15h-2.38c-3.33,10.63-9.2,18.95-17.6,24.98-8.41,6.03-18,9.04-28.78,9.04-12.37,0-22.44-2.69-30.21-8.09-7.77-5.39-13.52-12.69-17.25-21.88-3.73-9.19-5.59-19.5-5.59-30.92s1.86-22.79,5.59-33.18c3.72-10.38,9.67-18.83,17.84-25.33,8.17-6.5,18.83-9.75,31.99-9.75,8.72,0,16.57,1.9,23.55,5.71,6.98,3.81,11.89,10.07,14.75,18.79h2.38v-48.05c0-5.07-.36-9.91-1.07-14.51-.71-4.6-2.46-8.36-5.23-11.3-2.78-2.93-7.42-4.4-13.92-4.4-4.76,0-8.29,1.23-10.58,3.69-2.3,2.46-3.81,5.55-4.52,9.28-.71,3.73-1.07,7.57-1.07,11.54,0,2.38.08,4.68.24,6.9v.71c0,3.81-1.98,5.63-5.95,5.47h-29.73c-3.01,0-4.92-1.5-5.71-4.52-1.27-5.55-1.9-11.18-1.9-16.89,0-8.72,1.86-15.74,5.59-21.05,3.72-5.31,8.6-9.4,14.63-12.25,6.02-2.85,12.64-4.76,19.86-5.71,7.21-.95,14.31-1.43,21.29-1.43,9.83,0,18.23.83,25.21,2.5,6.98,1.67,12.8,4.24,17.48,7.73,4.68,3.49,8.33,7.93,10.94,13.32,2.62,5.39,4.48,11.7,5.59,18.91,1.11,7.22,1.67,15.5,1.67,24.86v111.32c0,3.49.36,6.42,1.07,8.8.71,2.38,2.34,3.96,4.88,4.76,1.9.48,3.37,1.23,4.4,2.26,1.03,1.03,1.55,2.58,1.55,4.64v1.9c0,4.28-2.06,6.34-6.18,6.18h-45.67Zm-2.85-70.17c0-6.18-1.03-12.01-3.09-17.48-2.06-5.47-5.27-9.91-9.63-13.32-4.36-3.41-10.03-5.11-17.01-5.11s-12.29,2.3-15.46,6.9c-3.17,4.6-5.15,10.03-5.95,16.29-.8,6.27-1.19,12.09-1.19,17.48,0,3.81.16,8.17.48,13.08.32,4.92,1.19,9.63,2.62,14.15,1.43,4.52,3.65,8.29,6.66,11.3,3.01,3.01,7.21,4.52,12.61,4.52,6.82,0,12.45-1.98,16.89-5.95,4.44-3.96,7.73-8.96,9.87-14.99,2.14-6.02,3.21-11.97,3.21-17.84v-9.04Z"/>
        </g>
        <path class="cls-2" d="m848.38,195.75c-4.49,0-6.66-1.55-6.49-4.65v-1.43c0-1.67.54-2.86,1.62-3.58,1.08-.72,2.62-1.25,4.62-1.61,3-.72,4.78-1.97,5.37-3.76.58-1.79.87-3.94.87-6.44v-102.71c0-2.39-.34-4.41-1-6.08-.67-1.67-2.42-2.86-5.24-3.58-2-.36-3.54-.92-4.62-1.7-1.08-.77-1.62-1.94-1.62-3.49v-2.33c0-2.51,1.75-3.99,5.24-4.47l44.7-6.08c.83-.12,1.58-.18,2.25-.18,3.5,0,5.24,1.55,5.24,4.65v125.97c0,1.67.08,3.19.25,4.56.16,1.37.71,2.54,1.62,3.49.91.96,2.37,1.67,4.37,2.15,2,.36,3.54.89,4.62,1.61,1.08.72,1.62,1.91,1.62,3.58v1.43c0,3.22-2.17,4.77-6.49,4.65h-56.94Zm51.44-169.1c0,3.22-2.17,4.77-6.49,4.65h-31.96c-4.49,0-6.66-1.55-6.49-4.65V5.36c0-3.22,2.16-4.77,6.49-4.65h31.96c4.49,0,6.66,1.55,6.49,4.65v21.29Z"/>
        <g>
          <path class="cls-2" d="m978.29,419.51c-1.9,0-3.01-.87-3.33-2.62v-2.85c0-5.07.95-9.87,2.85-14.39,1.9-4.52,3.01-9.24,3.33-14.15h-2.38c-3.33,10.63-9.2,18.95-17.6,24.98-8.41,6.03-18,9.04-28.78,9.04-12.37,0-22.44-2.69-30.21-8.09-7.77-5.39-13.52-12.69-17.25-21.88-3.73-9.19-5.59-19.5-5.59-30.92s1.86-22.79,5.59-33.18c3.72-10.38,9.67-18.83,17.84-25.33,8.17-6.5,18.83-9.75,31.99-9.75,8.72,0,16.57,1.9,23.55,5.71,6.98,3.81,11.89,10.07,14.75,18.79h2.38v-48.05c0-5.07-.36-9.91-1.07-14.51-.71-4.6-2.46-8.36-5.23-11.3-2.78-2.93-7.42-4.4-13.92-4.4-4.76,0-8.29,1.23-10.58,3.69-2.3,2.46-3.81,5.55-4.52,9.28-.71,3.73-1.07,7.57-1.07,11.54,0,2.38.08,4.68.24,6.9v.71c0,3.81-1.98,5.63-5.95,5.47h-29.73c-3.01,0-4.92-1.5-5.71-4.52-1.27-5.55-1.9-11.18-1.9-16.89,0-8.72,1.86-15.74,5.59-21.05,3.72-5.31,8.6-9.4,14.63-12.25,6.02-2.85,12.64-4.76,19.86-5.71,7.21-.95,14.31-1.43,21.29-1.43,9.83,0,18.23.83,25.21,2.5,6.98,1.67,12.8,4.24,17.48,7.73,4.68,3.49,8.33,7.93,10.94,13.32,2.62,5.39,4.48,11.7,5.59,18.91,1.11,7.22,1.67,15.5,1.67,24.86v111.32c0,3.49.36,6.42,1.07,8.8.71,2.38,2.34,3.96,4.88,4.76,1.9.48,3.37,1.23,4.4,2.26,1.03,1.03,1.55,2.58,1.55,4.64v1.9c0,4.28-2.06,6.34-6.18,6.18h-45.67Zm-2.85-70.17c0-6.18-1.03-12.01-3.09-17.48-2.06-5.47-5.27-9.91-9.63-13.32-4.36-3.41-10.03-5.11-17.01-5.11s-12.29,2.3-15.46,6.9c-3.17,4.6-5.15,10.03-5.95,16.29-.8,6.27-1.19,12.09-1.19,17.48,0,3.81.16,8.17.48,13.08.32,4.92,1.19,9.63,2.62,14.15,1.43,4.52,3.65,8.29,6.66,11.3,3.01,3.01,7.21,4.52,12.61,4.52,6.82,0,12.45-1.98,16.89-5.95,4.44-3.96,7.73-8.96,9.87-14.99,2.14-6.02,3.21-11.97,3.21-17.84v-9.04Z"/>
          <path class="cls-2" d="m1082.47,216.14c4.28,0,6.34,2.06,6.18,6.18v1.9c0,1.43-.24,2.54-.71,3.33-.48.8-1.11,1.47-1.9,2.02-.79.56-1.82,1.15-3.09,1.78-1.59.48-2.38,1.83-2.38,4.04,0,.48.08,1.03.24,1.67,7.93,42.82,11.89,97.29,11.89,163.41h2.38l28.31-179.11c.48-3.49,2.46-5.23,5.95-5.23h35.68c3.65,0,5.63,1.75,5.95,5.23l28.31,179.11h2.38c0-31.4.75-59.23,2.26-83.49,1.5-24.26,4.4-48.36,8.68-72.31.79-2.69,1.19-5.15,1.19-7.37,0-2.38-.87-4.28-2.62-5.71-1.75-.95-3.09-1.9-4.04-2.85s-1.43-2.46-1.43-4.52v-1.9c0-4.28,2.06-6.34,6.18-6.18h54.23c4.28,0,6.34,2.06,6.18,6.18v1.9c0,2.06-.52,3.61-1.55,4.64s-2.5,1.78-4.4,2.26c-4.92,1.27-7.85,5.71-8.8,13.32l-24.02,169.83c-.32,3.49-2.3,5.23-5.95,5.23h-45.67c-2.54,0-4.36-1.19-5.47-3.57-9.83-23.79-16.93-52.25-21.29-85.39-4.36-33.14-6.54-64.94-6.54-95.38h-2.38c0,30.45-2.22,62.24-6.66,95.38-4.44,33.15-11.58,61.61-21.41,85.39-.95,2.38-2.78,3.57-5.47,3.57h-45.67c-3.49,0-5.47-1.74-5.95-5.23l-24.74-172.69c-.64-6.34-3.41-9.91-8.33-10.7-1.9-.32-3.37-.99-4.4-2.02-1.03-1.03-1.55-2.58-1.55-4.64v-1.9c0-4.28,2.06-6.34,6.18-6.18h54.23Z"/>
        </g>
        <path class="cls-2" d="m874.34,398.73c-1.67-1.54-4.04-2.69-7.12-3.46-6.41-2.31-10.9-8.6-13.47-18.86l-35.02-121.23c-2.05-7.44-4.3-13.79-6.73-19.05-2.44-5.26-5.33-9.56-8.66-12.89-3.34-3.34-7.57-5.97-12.7-7.89-5.14-1.93-11.42-3.28-18.86-4.05-7.45-.77-16.42-1.15-26.94-1.15v-4.62c27.19,0,48.11-6.73,62.73-20.2,14.63-13.47,21.94-36.24,21.94-68.32,0-24.88-1.93-45.02-5.77-60.42-3.85-15.39-10.4-27.19-19.63-35.4-9.24-8.21-21.69-13.79-37.33-16.75C751.12,1.5,731.5.02,707.89.02h-122c-6.67-.25-10,3.08-10,10v3.08c0,3.34.83,5.84,2.5,7.51,1.66,1.67,4.04,2.88,7.12,3.65,4.36,1.54,7.05,4.11,8.08,7.7,1.02,3.6,1.54,7.96,1.54,13.09v329.43c0,3.34-.13,6.35-.39,9.05-.25,2.69-1.09,5.07-2.5,7.12-1.41,2.05-3.65,3.59-6.73,4.62-3.08.77-5.46,1.92-7.12,3.46-1.67,1.54-2.5,4.11-2.5,7.7v3.08c-.26,6.67,3.08,10,10,10h95.45c6.67.26,10-3.08,10-10v-3.08c0-3.59-.83-6.16-2.5-7.7-1.67-1.54-4.04-2.69-7.12-3.46-3.08-1.03-5.32-2.57-6.73-4.62-1.42-2.05-2.25-4.55-2.5-7.51-.26-2.94-.39-6.21-.39-9.81v-135.85h25.4c12.32,0,22.32,1.92,30.02,5.77,7.7,3.85,14.24,10.91,19.63,21.16,5.39,10.27,10.45,24.64,15.2,43.11,4.75,18.47,10.33,42.21,16.74,71.2.51,2.56.77,4.75.77,6.54,0,5.65-1.92,8.98-5.77,10.01-2.83,1.02-5.07,2.25-6.74,3.65-1.67,1.42-2.5,3.92-2.5,7.51v3.08c-.26,6.67,3.08,10,10.01,10h91.98c6.67.26,10.01-3.08,10.01-10v-3.08c0-3.59-.84-6.16-2.51-7.7Zm-96.68-317.03c6.9,22.61,4.04,43.85-8.76,63.74-1.62,2.51-1.67,2.48-3.15-.07-12.23-21.18-24.46-42.37-36.68-63.56-.45-.78-.87-1.58-1.4-2.54,1.04-.69,1.96-.43,2.83-.43,14.41-.02,28.82.05,43.23-.08,2.35-.02,3.28.81,3.93,2.94Zm-54.96-49.06c23.42,5.33,40.48,18.73,51.32,40.13.28.54.7,1.08.42,2.04-.82,0-1.7,0-2.58,0-24.5,0-49,0-73.5,0q-3.1,0-1.5-2.78c7.2-12.49,14.45-24.96,21.55-37.51,1.1-1.94,2.17-2.35,4.3-1.87Zm-70.25,23.7c16.13-17.77,36.17-26.12,60.14-25.04.88.04,1.82-.04,2.79.69-13.12,22.73-26.24,45.47-39.32,68.14-.93-.11-1.03-.74-1.28-1.17-7.53-13.03-15.03-26.09-22.61-39.1-.82-1.41-.82-2.3.28-3.52Zm-14.11,72.22c-7.45-23.57-4.44-45.61,9.41-66.12.15-.22.36-.4.83-.91,13.27,23,26.38,45.72,39.49,68.43-1.02.67-1.85.45-2.64.45-14.59.02-29.19,0-43.78.02-1.49,0-2.69.07-3.3-1.87Zm58.73,46.42c-.69,1.2-1.19,2.24-3.06,1.83-24.32-5.24-41.93-18.99-52.8-41.36-.07-.15-.06-.34-.16-1h2.56c24.59,0,49.17,0,73.76,0,3.06,0,3.07.02,1.59,2.59-7.3,12.65-14.61,25.29-21.89,37.94Zm5.65,2.96c-1.32-.07-2.92.16-1.57-2.17,12.79-22.03,25.51-44.11,38.25-66.17.09-.15.23-.28.66-.78,2.32,4,4.48,7.75,6.65,11.5,5.58,9.66,11.12,19.33,16.77,28.95.88,1.49.87,2.45-.32,3.75-16.24,17.81-36.38,26.11-60.44,24.92Z"/>
      </g>
      <g>
        <g>
          <path class="cls-1" d="m6.19,259.98c-4.28,0-6.34-2.06-6.18-6.18v-1.9c0-2.22.51-3.81,1.55-4.76,1.03-.95,2.5-1.67,4.4-2.14,2.85-.95,4.56-2.62,5.11-5,.55-2.38.83-5.23.83-8.56V28.54c0-3.17-.32-5.87-.95-8.09-.64-2.22-2.3-3.81-5-4.76-1.9-.48-3.37-1.23-4.4-2.26C.52,12.41,0,10.86,0,8.8v-1.9C0,2.62,2.07.56,6.19.71h56.61c2.69,0,4.52,1.19,5.47,3.57,8.72,18.4,16.77,38.18,24.14,59.35,7.37,21.17,13.32,44.24,17.84,69.22,4.52,24.98,6.78,52.29,6.78,81.94h2.38c0-29.65,2.26-56.97,6.78-81.94s10.47-48.05,17.84-69.22c7.37-21.17,15.42-40.95,24.14-59.35,1.11-2.38,2.93-3.57,5.47-3.57h56.37c4.28,0,6.34,2.06,6.18,6.18v1.9c0,2.06-.52,3.61-1.55,4.64s-2.5,1.78-4.4,2.26c-2.85.95-4.56,2.62-5.11,5-.56,2.38-.83,5.23-.83,8.56v202.9c0,3.01.32,5.67.95,7.97.63,2.3,2.3,3.92,5,4.88,1.9.48,3.37,1.19,4.4,2.14,1.03.95,1.55,2.54,1.55,4.76v1.9c0,4.28-2.06,6.34-6.18,6.18h-58.99c-4.28,0-6.34-2.06-6.18-6.18v-1.9c0-2.22.51-3.81,1.55-4.76,1.03-.95,2.5-1.67,4.4-2.14,2.85-.95,4.56-2.62,5.11-5,.55-2.38.83-5.23.83-8.56.63-35.68,1.9-61.33,3.81-76.95,1.9-15.62,3.72-30.45,5.47-44.48,1.74-14.03,2.62-38.57,2.62-73.62h-2.38l-48.76,209.32c-.8,3.17-2.78,4.76-5.95,4.76h-26.88c-3.01,0-5-1.58-5.95-4.76L49.96,36.39h-2.38c0,35.05.91,59.7,2.74,73.98,1.82,14.27,3.65,29.22,5.47,44.84,1.82,15.62,3.05,41.03,3.69,76.23,0,2.22.08,4.25.24,6.07.16,1.82.67,3.37,1.55,4.64.87,1.27,2.26,2.22,4.16,2.85,1.9.48,3.37,1.19,4.4,2.14,1.03.95,1.55,2.54,1.55,4.76v1.9c0,4.28-2.06,6.34-6.18,6.18H6.19Z"/>
          <path class="cls-1" d="m253.81,259.98c-4.28,0-6.34-2.06-6.18-6.18v-1.9c0-2.22.51-3.81,1.55-4.76,1.03-.95,2.5-1.67,4.4-2.14,2.85-.95,4.56-2.62,5.11-5,.55-2.38.83-5.23.83-8.56V94.91c0-3.17-.32-5.87-.95-8.09-.64-2.22-2.3-3.81-5-4.76-1.9-.48-3.37-1.23-4.4-2.26-1.03-1.03-1.55-2.58-1.55-4.64v-3.09c0-3.33,1.67-5.31,5-5.95l42.58-8.09c.79-.16,1.51-.24,2.14-.24,3.33,0,5,2.06,5,6.18v167.45c0,2.22.08,4.25.24,6.07.16,1.82.67,3.37,1.55,4.64.87,1.27,2.26,2.22,4.16,2.85,1.9.48,3.37,1.19,4.4,2.14,1.03.95,1.55,2.54,1.55,4.76v1.9c0,4.28-2.06,6.34-6.18,6.18h-54.23Zm49-224.78c0,4.28-2.06,6.34-6.18,6.18h-30.45c-4.28,0-6.34-2.06-6.18-6.18V6.9c0-4.28,2.06-6.34,6.18-6.18h30.45c4.28,0,6.34,2.06,6.18,6.18v28.31Z"/>
          <path class="cls-1" d="m337.77,259.98c-4.28,0-6.34-2.06-6.18-6.18v-1.9c0-2.22.51-3.81,1.55-4.76,1.03-.95,2.5-1.67,4.4-2.14,2.53-.79,4.16-2.34,4.88-4.64.71-2.3,1.07-5.27,1.07-8.92v-127.49h-18.55c-4.28,0-6.34-2.06-6.18-6.18v-11.42c0-4.28,2.06-6.34,6.18-6.18h37.34v-2.38c-7.3,0-14.15-1.46-20.58-4.4-6.42-2.93-11.66-7.17-15.7-12.73-4.04-5.55-6.07-12.21-6.07-19.98,0-9.99,3.13-17.96,9.4-23.91,6.26-5.95,13.87-10.23,22.83-12.84,8.96-2.62,17.48-3.92,25.57-3.92,9.35,0,17.48.64,24.38,1.9,6.9,1.27,12.73,3.13,17.48,5.59,4.76,2.46,8.56,5.35,11.42,8.68,2.85,3.33,4.91,7.06,6.18,11.18,1.27,4.12,1.9,8.48,1.9,13.08,0,5.39-.64,11.02-1.9,16.89-.79,3.01-2.78,4.52-5.95,4.52h-29.5c-4.28,0-6.34-2.06-6.18-6.18,0-5.55-.32-10.7-.95-15.46-.64-4.76-2.22-8.6-4.76-11.54-2.54-2.93-6.58-4.4-12.13-4.4-7.77,0-12.96,2.02-15.58,6.07-2.62,4.04-3.92,9.72-3.92,17.01,0,6.66,1.9,12.09,5.71,16.29,3.81,4.2,8.64,7.53,14.51,9.99,5.87,2.46,12.13,4.16,18.79,5.11s12.76,1.43,18.32,1.43c4.28,0,6.34,2.06,6.18,6.18v11.42c0,4.28-2.06,6.34-6.18,6.18h-29.26v127.97c0,3.49.39,6.34,1.19,8.56.79,2.22,2.38,3.73,4.76,4.52,1.9.48,3.37,1.19,4.4,2.14,1.03.95,1.55,2.54,1.55,4.76v1.9c0,4.28-2.06,6.34-6.18,6.18h-54.23Z"/>
          <path class="cls-1" d="m524.02,259.98c-1.9,0-3.01-.87-3.33-2.62v-2.85c0-5.07.95-9.87,2.85-14.39,1.9-4.52,3.01-9.24,3.33-14.15h-2.38c-3.33,10.63-9.2,18.95-17.6,24.98-8.41,6.03-18,9.04-28.78,9.04-12.37,0-22.44-2.69-30.21-8.09-7.77-5.39-13.52-12.69-17.25-21.88-3.73-9.19-5.59-19.5-5.59-30.92s1.86-22.79,5.59-33.18c3.72-10.38,9.67-18.83,17.84-25.33,8.17-6.5,18.83-9.75,31.99-9.75,8.72,0,16.57,1.9,23.55,5.71,6.98,3.81,11.89,10.07,14.75,18.79h2.38v-48.05c0-5.07-.36-9.91-1.07-14.51-.71-4.6-2.46-8.36-5.23-11.3-2.78-2.93-7.42-4.4-13.92-4.4-4.76,0-8.29,1.23-10.58,3.69-2.3,2.46-3.81,5.55-4.52,9.28-.71,3.73-1.07,7.57-1.07,11.54,0,2.38.08,4.68.24,6.9v.71c0,3.81-1.98,5.63-5.95,5.47h-29.73c-3.01,0-4.92-1.5-5.71-4.52-1.27-5.55-1.9-11.18-1.9-16.89,0-8.72,1.86-15.74,5.59-21.05,3.72-5.31,8.6-9.4,14.63-12.25,6.02-2.85,12.64-4.76,19.86-5.71,7.21-.95,14.31-1.43,21.29-1.43,9.83,0,18.23.83,25.21,2.5,6.98,1.67,12.8,4.24,17.48,7.73,4.68,3.49,8.33,7.93,10.94,13.32,2.62,5.39,4.48,11.7,5.59,18.91,1.11,7.22,1.67,15.5,1.67,24.86v111.32c0,3.49.36,6.42,1.07,8.8.71,2.38,2.34,3.96,4.88,4.76,1.9.48,3.37,1.23,4.4,2.26,1.03,1.03,1.55,2.58,1.55,4.64v1.9c0,4.28-2.06,6.34-6.18,6.18h-45.67Zm-2.85-70.17c0-6.18-1.03-12.01-3.09-17.48-2.06-5.47-5.27-9.91-9.63-13.32-4.36-3.41-10.03-5.11-17.01-5.11s-12.29,2.3-15.46,6.9c-3.17,4.6-5.15,10.03-5.95,16.29-.8,6.27-1.19,12.09-1.19,17.48,0,3.81.16,8.17.48,13.08.32,4.92,1.19,9.63,2.62,14.15,1.43,4.52,3.65,8.29,6.66,11.3,3.01,3.01,7.21,4.52,12.61,4.52,6.82,0,12.45-1.98,16.89-5.95,4.44-3.96,7.73-8.96,9.87-14.99,2.14-6.02,3.21-11.97,3.21-17.84v-9.04Z"/>
        </g>
        <path class="cls-1" d="m848.38,195.75c-4.49,0-6.66-1.55-6.49-4.65v-1.43c0-1.67.54-2.86,1.62-3.58,1.08-.72,2.62-1.25,4.62-1.61,3-.72,4.78-1.97,5.37-3.76.58-1.79.87-3.94.87-6.44v-102.71c0-2.39-.34-4.41-1-6.08-.67-1.67-2.42-2.86-5.24-3.58-2-.36-3.54-.92-4.62-1.7-1.08-.77-1.62-1.94-1.62-3.49v-2.33c0-2.51,1.75-3.99,5.24-4.47l44.7-6.08c.83-.12,1.58-.18,2.25-.18,3.5,0,5.24,1.55,5.24,4.65v125.97c0,1.67.08,3.19.25,4.56.16,1.37.71,2.54,1.62,3.49.91.96,2.37,1.67,4.37,2.15,2,.36,3.54.89,4.62,1.61,1.08.72,1.62,1.91,1.62,3.58v1.43c0,3.22-2.17,4.77-6.49,4.65h-56.94Zm51.44-169.1c0,3.22-2.17,4.77-6.49,4.65h-31.96c-4.49,0-6.66-1.55-6.49-4.65V5.36c0-3.22,2.16-4.77,6.49-4.65h31.96c4.49,0,6.66,1.55,6.49,4.65v21.29Z"/>
        <g>
          <path class="cls-1" d="m978.29,419.51c-1.9,0-3.01-.87-3.33-2.62v-2.85c0-5.07.95-9.87,2.85-14.39,1.9-4.52,3.01-9.24,3.33-14.15h-2.38c-3.33,10.63-9.2,18.95-17.6,24.98-8.41,6.03-18,9.04-28.78,9.04-12.37,0-22.44-2.69-30.21-8.09-7.77-5.39-13.52-12.69-17.25-21.88-3.73-9.19-5.59-19.5-5.59-30.92s1.86-22.79,5.59-33.18c3.72-10.38,9.67-18.83,17.84-25.33,8.17-6.5,18.83-9.75,31.99-9.75,8.72,0,16.57,1.9,23.55,5.71,6.98,3.81,11.89,10.07,14.75,18.79h2.38v-48.05c0-5.07-.36-9.91-1.07-14.51-.71-4.6-2.46-8.36-5.23-11.3-2.78-2.93-7.42-4.4-13.92-4.4-4.76,0-8.29,1.23-10.58,3.69-2.3,2.46-3.81,5.55-4.52,9.28-.71,3.73-1.07,7.57-1.07,11.54,0,2.38.08,4.68.24,6.9v.71c0,3.81-1.98,5.63-5.95,5.47h-29.73c-3.01,0-4.92-1.5-5.71-4.52-1.27-5.55-1.9-11.18-1.9-16.89,0-8.72,1.86-15.74,5.59-21.05,3.72-5.31,8.6-9.4,14.63-12.25,6.02-2.85,12.64-4.76,19.86-5.71,7.21-.95,14.31-1.43,21.29-1.43,9.83,0,18.23.83,25.21,2.5,6.98,1.67,12.8,4.24,17.48,7.73,4.68,3.49,8.33,7.93,10.94,13.32,2.62,5.39,4.48,11.7,5.59,18.91,1.11,7.22,1.67,15.5,1.67,24.86v111.32c0,3.49.36,6.42,1.07,8.8.71,2.38,2.34,3.96,4.88,4.76,1.9.48,3.37,1.23,4.4,2.26,1.03,1.03,1.55,2.58,1.55,4.64v1.9c0,4.28-2.06,6.34-6.18,6.18h-45.67Zm-2.85-70.17c0-6.18-1.03-12.01-3.09-17.48-2.06-5.47-5.27-9.91-9.63-13.32-4.36-3.41-10.03-5.11-17.01-5.11s-12.29,2.3-15.46,6.9c-3.17,4.6-5.15,10.03-5.95,16.29-.8,6.27-1.19,12.09-1.19,17.48,0,3.81.16,8.17.48,13.08.32,4.92,1.19,9.63,2.62,14.15,1.43,4.52,3.65,8.29,6.66,11.3,3.01,3.01,7.21,4.52,12.61,4.52,6.82,0,12.45-1.98,16.89-5.95,4.44-3.96,7.73-8.96,9.87-14.99,2.14-6.02,3.21-11.97,3.21-17.84v-9.04Z"/>
          <path class="cls-1" d="m1082.47,216.14c4.28,0,6.34,2.06,6.18,6.18v1.9c0,1.43-.24,2.54-.71,3.33-.48.8-1.11,1.47-1.9,2.02-.79.56-1.82,1.15-3.09,1.78-1.59.48-2.38,1.83-2.38,4.04,0,.48.08,1.03.24,1.67,7.93,42.82,11.89,97.29,11.89,163.41h2.38l28.31-179.11c.48-3.49,2.46-5.23,5.95-5.23h35.68c3.65,0,5.63,1.75,5.95,5.23l28.31,179.11h2.38c0-31.4.75-59.23,2.26-83.49,1.5-24.26,4.4-48.36,8.68-72.31.79-2.69,1.19-5.15,1.19-7.37,0-2.38-.87-4.28-2.62-5.71-1.75-.95-3.09-1.9-4.04-2.85s-1.43-2.46-1.43-4.52v-1.9c0-4.28,2.06-6.34,6.18-6.18h54.23c4.28,0,6.34,2.06,6.18,6.18v1.9c0,2.06-.52,3.61-1.55,4.64s-2.5,1.78-4.4,2.26c-4.92,1.27-7.85,5.71-8.8,13.32l-24.02,169.83c-.32,3.49-2.3,5.23-5.95,5.23h-45.67c-2.54,0-4.36-1.19-5.47-3.57-9.83-23.79-16.93-52.25-21.29-85.39-4.36-33.14-6.54-64.94-6.54-95.38h-2.38c0,30.45-2.22,62.24-6.66,95.38-4.44,33.15-11.58,61.61-21.41,85.39-.95,2.38-2.78,3.57-5.47,3.57h-45.67c-3.49,0-5.47-1.74-5.95-5.23l-24.74-172.69c-.64-6.34-3.41-9.91-8.33-10.7-1.9-.32-3.37-.99-4.4-2.02-1.03-1.03-1.55-2.58-1.55-4.64v-1.9c0-4.28,2.06-6.34,6.18-6.18h54.23Z"/>
        </g>
        <path class="cls-1" d="m874.34,398.73c-1.67-1.54-4.04-2.69-7.12-3.46-6.41-2.31-10.9-8.6-13.47-18.86l-35.02-121.23c-2.05-7.44-4.3-13.79-6.73-19.05-2.44-5.26-5.33-9.56-8.66-12.89-3.34-3.34-7.57-5.97-12.7-7.89-5.14-1.93-11.42-3.28-18.86-4.05-7.45-.77-16.42-1.15-26.94-1.15v-4.62c27.19,0,48.11-6.73,62.73-20.2,14.63-13.47,21.94-36.24,21.94-68.32,0-24.88-1.93-45.02-5.77-60.42-3.85-15.39-10.4-27.19-19.63-35.4-9.24-8.21-21.69-13.79-37.33-16.75C751.12,1.5,731.5.02,707.89.02h-122c-6.67-.25-10,3.08-10,10v3.08c0,3.34.83,5.84,2.5,7.51,1.66,1.67,4.04,2.88,7.12,3.65,4.36,1.54,7.05,4.11,8.08,7.7,1.02,3.6,1.54,7.96,1.54,13.09v329.43c0,3.34-.13,6.35-.39,9.05-.25,2.69-1.09,5.07-2.5,7.12-1.41,2.05-3.65,3.59-6.73,4.62-3.08.77-5.46,1.92-7.12,3.46-1.67,1.54-2.5,4.11-2.5,7.7v3.08c-.26,6.67,3.08,10,10,10h95.45c6.67.26,10-3.08,10-10v-3.08c0-3.59-.83-6.16-2.5-7.7-1.67-1.54-4.04-2.69-7.12-3.46-3.08-1.03-5.32-2.57-6.73-4.62-1.42-2.05-2.25-4.55-2.5-7.51-.26-2.94-.39-6.21-.39-9.81v-135.85h25.4c12.32,0,22.32,1.92,30.02,5.77,7.7,3.85,14.24,10.91,19.63,21.16,5.39,10.27,10.45,24.64,15.2,43.11,4.75,18.47,10.33,42.21,16.74,71.2.51,2.56.77,4.75.77,6.54,0,5.65-1.92,8.98-5.77,10.01-2.83,1.02-5.07,2.25-6.74,3.65-1.67,1.42-2.5,3.92-2.5,7.51v3.08c-.26,6.67,3.08,10,10.01,10h91.98c6.67.26,10.01-3.08,10.01-10v-3.08c0-3.59-.84-6.16-2.51-7.7Zm-96.68-317.03c6.9,22.61,4.04,43.85-8.76,63.74-1.62,2.51-1.67,2.48-3.15-.07-12.23-21.18-24.46-42.37-36.68-63.56-.45-.78-.87-1.58-1.4-2.54,1.04-.69,1.96-.43,2.83-.43,14.41-.02,28.82.05,43.23-.08,2.35-.02,3.28.81,3.93,2.94Zm-54.96-49.06c23.42,5.33,40.48,18.73,51.32,40.13.28.54.7,1.08.42,2.04-.82,0-1.7,0-2.58,0-24.5,0-49,0-73.5,0q-3.1,0-1.5-2.78c7.2-12.49,14.45-24.96,21.55-37.51,1.1-1.94,2.17-2.35,4.3-1.87Zm-70.25,23.7c16.13-17.77,36.17-26.12,60.14-25.04.88.04,1.82-.04,2.79.69-13.12,22.73-26.24,45.47-39.32,68.14-.93-.11-1.03-.74-1.28-1.17-7.53-13.03-15.03-26.09-22.61-39.1-.82-1.41-.82-2.3.28-3.52Zm-14.11,72.22c-7.45-23.57-4.44-45.61,9.41-66.12.15-.22.36-.4.83-.91,13.27,23,26.38,45.72,39.49,68.43-1.02.67-1.85.45-2.64.45-14.59.02-29.19,0-43.78.02-1.49,0-2.69.07-3.3-1.87Zm58.73,46.42c-.69,1.2-1.19,2.24-3.06,1.83-24.32-5.24-41.93-18.99-52.8-41.36-.07-.15-.06-.34-.16-1h2.56c24.59,0,49.17,0,73.76,0,3.06,0,3.07.02,1.59,2.59-7.3,12.65-14.61,25.29-21.89,37.94Zm5.65,2.96c-1.32-.07-2.92.16-1.57-2.17,12.79-22.03,25.51-44.11,38.25-66.17.09-.15.23-.28.66-.78,2.32,4,4.48,7.75,6.65,11.5,5.58,9.66,11.12,19.33,16.77,28.95.88,1.49.87,2.45-.32,3.75-16.24,17.81-36.38,26.11-60.44,24.92Z"/>
      </g>
    </g>
  </g>
</svg>