<?xml version="1.0" encoding="UTF-8"?>
<svg id="Layer_2" data-name="Layer 2" xmlns="http://www.w3.org/2000/svg" viewBox="0 0 1272.3 419.52">
  <defs>
    <style>
      .cls-1, .cls-2 {
        stroke-width: 0px;
      }

      .cls-2 {
        fill: #fff;
      }
    </style>
  </defs>
  <g id="Layer_1-2" data-name="Layer 1">
    <g>
      <g>
        <g>
          <path class="cls-2" d="m6.19,259.98c-4.28,0-6.34-2.06-6.18-6.18v-1.9c0-2.22.51-3.81,1.55-4.76,1.03-.95,2.5-1.67,4.4-2.14,2.85-.95,4.56-2.62,5.11-5,.55-2.38.83-5.23.83-8.56V28.54c0-3.17-.32-5.87-.95-8.09-.64-2.22-2.3-3.81-5-4.76-1.9-.48-3.37-1.23-4.4-2.26C.52,12.41,0,10.86,0,8.8v-1.9C0,2.62,2.07.56,6.19.71h56.61c2.69,0,4.52,1.19,5.47,3.57,8.72,18.4,16.77,38.18,24.14,59.35,7.37,21.17,13.32,44.24,17.84,69.22,4.52,24.98,6.78,52.29,6.78,81.94h2.38c0-29.65,2.26-56.97,6.78-81.94s10.47-48.05,17.84-69.22c7.37-21.17,15.42-40.95,24.14-59.35,1.11-2.38,2.93-3.57,5.47-3.57h56.37c4.28,0,6.34,2.06,6.18,6.18v1.9c0,2.06-.52,3.61-1.55,4.64s-2.5,1.78-4.4,2.26c-2.85.95-4.56,2.62-5.11,5-.56,2.38-.83,5.23-.83,8.56v202.9c0,3.01.32,5.67.95,7.97.63,2.3,2.3,3.92,5,4.88,1.9.48,3.37,1.19,4.4,2.14,1.03.95,1.55,2.54,1.55,4.76v1.9c0,4.28-2.06,6.34-6.18,6.18h-58.99c-4.28,0-6.34-2.06-6.18-6.18v-1.9c0-2.22.51-3.81,1.55-4.76,1.03-.95,2.5-1.67,4.4-2.14,2.85-.95,4.56-2.62,5.11-5,.55-2.38.83-5.23.83-8.56.63-35.68,1.9-61.33,3.81-76.95,1.9-15.62,3.72-30.45,5.47-44.48,1.74-14.03,2.62-38.57,2.62-73.62h-2.38l-48.76,209.32c-.8,3.17-2.78,4.76-5.95,4.76h-26.88c-3.01,0-5-1.58-5.95-4.76L49.96,36.39h-2.38c0,35.05.91,59.7,2.74,73.98,1.82,14.27,3.65,29.22,5.47,44.84,1.82,15.62,3.05,41.03,3.69,76.23,0,2.22.08,4.25.24,6.07.16,1.82.67,3.37,1.55,4.64.87,1.27,2.26,2.22,4.16,2.85,1.9.48,3.37,1.19,4.4,2.14,1.03.95,1.55,2.54,1.55,4.76v1.9c0,4.28-2.06,6.34-6.18,6.18H6.19Z"/>
          <path class="cls-2" d="m253.81,259.98c-4.28,0-6.34-2.06-6.18-6.18v-1.9c0-2.22.51-3.81,1.55-4.76,1.03-.95,2.5-1.67,4.4-2.14,2.85-.95,4.56-2.62,5.11-5,.55-2.38.83-5.23.83-8.56V94.91c0-3.17-.32-5.87-.95-8.09-.64-2.22-2.3-3.81-5-4.76-1.9-.48-3.37-1.23-4.4-2.26-1.03-1.03-1.55-2.58-1.55-4.64v-3.09c0-3.33,1.67-5.31,5-5.95l42.58-8.09c.79-.16,1.51-.24,2.14-.24,3.33,0,5,2.06,5,6.18v167.45c0,2.22.08,4.25.24,6.07.16,1.82.67,3.37,1.55,4.64.87,1.27,2.26,2.22,4.16,2.85,1.9.48,3.37,1.19,4.4,2.14,1.03.95,1.55,2.54,1.55,4.76v1.9c0,4.28-2.06,6.34-6.18,6.18h-54.23Zm49-224.78c0,4.28-2.06,6.34-6.18,6.18h-30.45c-4.28,0-6.34-2.06-6.18-6.18V6.9c0-4.28,2.06-6.34,6.18-6.18h30.45c4.28,0,6.34,2.06,6.18,6.18v28.31Z"/>
          <path class="cls-2" d="m337.77,259.98c-4.28,0-6.34-2.06-6.18-6.18v-1.9c0-2.22.51-3.81,1.55-4.76,1.03-.95,2.5-1.67,4.4-2.14,2.53-.79,4.16-2.34,4.88-4.64.71-2.3,1.07-5.27,1.07-8.92v-127.49h-18.55c-4.28,0-6.34-2.06-6.18-6.18v-11.42c0-4.28,2.06-6.34,6.18-6.18h37.34v-2.38c-7.3,0-14.15-1.46-20.58-4.4-6.42-2.93-11.66-7.17-15.7-12.73-4.04-5.55-6.07-12.21-6.07-19.98,0-9.99,3.13-17.96,9.4-23.91,6.26-5.95,13.87-10.23,22.83-12.84,8.96-2.62,17.48-3.92,25.57-3.92,9.35,0,17.48.64,24.38,1.9,6.9,1.27,12.73,3.13,17.48,5.59,4.76,2.46,8.56,5.35,11.42,8.68,2.85,3.33,4.91,7.06,6.18,11.18,1.27,4.12,1.9,8.48,1.9,13.08,0,5.39-.64,11.02-1.9,16.89-.79,3.01-2.78,4.52-5.95,4.52h-29.5c-4.28,0-6.34-2.06-6.18-6.18,0-5.55-.32-10.7-.95-15.46-.64-4.76-2.22-8.6-4.76-11.54-2.54-2.93-6.58-4.4-12.13-4.4-7.77,0-12.96,2.02-15.58,6.07-2.62,4.04-3.92,9.72-3.92,17.01,0,6.66,1.9,12.09,5.71,16.29,3.81,4.2,8.64,7.53,14.51,9.99,5.87,2.46,12.13,4.16,18.79,5.11s12.76,1.43,18.32,1.43c4.28,0,6.34,2.06,6.18,6.18v11.42c0,4.28-2.06,6.34-6.18,6.18h-29.26v127.97c0,3.49.39,6.34,1.19,8.56.79,2.22,2.38,3.73,4.76,4.52,1.9.48,3.37,1.19,4.4,2.14,1.03.95,1.55,2.54,1.55,4.76v1.9c0,4.28-2.06,6.34-6.18,6.18h-54.23Z"/>
          <path class="cls-2" d="m524.02,259.98c-1.9,0-3.01-.87-3.33-2.62v-2.85c0-5.07.95-9.87,2.85-14.39,1.9-4.52,3.01-9.24,3.33-14.15h-2.38c-3.33,10.63-9.2,18.95-17.6,24.98-8.41,6.03-18,9.04-28.78,9.04-12.37,0-22.44-2.69-30.21-8.09-7.77-5.39-13.52-12.69-17.25-21.88-3.73-9.19-5.59-19.5-5.59-30.92s1.86-22.79,5.59-33.18c3.72-10.38,9.67-18.83,17.84-25.33,8.17-6.5,18.83-9.75,31.99-9.75,8.72,0,16.57,1.9,23.55,5.71,6.98,3.81,11.89,10.07,14.75,18.79h2.38v-48.05c0-5.07-.36-9.91-1.07-14.51-.71-4.6-2.46-8.36-5.23-11.3-2.78-2.93-7.42-4.4-13.92-4.4-4.76,0-8.29,1.23-10.58,3.69-2.3,2.46-3.81,5.55-4.52,9.28-.71,3.73-1.07,7.57-1.07,11.54,0,2.38.08,4.68.24,6.9v.71c0,3.81-1.98,5.63-5.95,5.47h-29.73c-3.01,0-4.92-1.5-5.71-4.52-1.27-5.55-1.9-11.18-1.9-16.89,0-8.72,1.86-15.74,5.59-21.05,3.72-5.31,8.6-9.4,14.63-12.25,6.02-2.85,12.64-4.76,19.86-5.71,7.21-.95,14.31-1.43,21.29-1.43,9.83,0,18.23.83,25.21,2.5,6.98,1.67,12.8,4.24,17.48,7.73,4.68,3.49,8.33,7.93,10.94,13.32,2.62,5.39,4.48,11.7,5.59,18.91,1.11,7.22,1.67,15.5,1.67,24.86v111.32c0,3.49.36,6.42,1.07,8.8.71,2.38,2.34,3.96,4.88,4.76,1.9.48,3.37,1.23,4.4,2.26,1.03,1.03,1.55,2.58,1.55,4.64v1.9c0,4.28-2.06,6.34-6.18,6.18h-45.67Zm-2.85-70.17c0-6.18-1.03-12.01-3.09-17.48-2.06-5.47-5.27-9.91-9.63-13.32-4.36-3.41-10.03-5.11-17.01-5.11s-12.29,2.3-15.46,6.9c-3.17,4.6-5.15,10.03-5.95,16.29-.8,6.27-1.19,12.09-1.19,17.48,0,3.81.16,8.17.48,13.08.32,4.92,1.19,9.63,2.62,14.15,1.43,4.52,3.65,8.29,6.66,11.3,3.01,3.01,7.21,4.52,12.61,4.52,6.82,0,12.45-1.98,16.89-5.95,4.44-3.96,7.73-8.96,9.87-14.99,2.14-6.02,3.21-11.97,3.21-17.84v-9.04Z"/>
        </g>
        <path class="cls-2" d="m848.38,195.75c-4.49,0-6.66-1.55-6.49-4.65v-1.43c0-1.67.54-2.86,1.62-3.58,1.08-.72,2.62-1.25,4.62-1.61,3-.72,4.78-1.97,5.37-3.76.58-1.79.87-3.94.87-6.44v-102.71c0-2.39-.34-4.41-1-6.08-.67-1.67-2.42-2.86-5.24-3.58-2-.36-3.54-.92-4.62-1.7-1.08-.77-1.62-1.94-1.62-3.49v-2.33c0-2.51,1.75-3.99,5.24-4.47l44.7-6.08c.83-.12,1.58-.18,2.25-.18,3.5,0,5.24,1.55,5.24,4.65v125.97c0,1.67.08,3.19.25,4.56.16,1.37.71,2.54,1.62,3.49.91.96,2.37,1.67,4.37,2.15,2,.36,3.54.89,4.62,1.61,1.08.72,1.62,1.91,1.62,3.58v1.43c0,3.22-2.17,4.77-6.49,4.65h-56.94Zm51.44-169.1c0,3.22-2.17,4.77-6.49,4.65h-31.96c-4.49,0-6.66-1.55-6.49-4.65V5.36c0-3.22,2.16-4.77,6.49-4.65h31.96c4.49,0,6.66,1.55,6.49,4.65v21.29Z"/>
        <g>
          <path class="cls-2" d="m978.29,419.51c-1.9,0-3.01-.87-3.33-2.62v-2.85c0-5.07.95-9.87,2.85-14.39,1.9-4.52,3.01-9.24,3.33-14.15h-2.38c-3.33,10.63-9.2,18.95-17.6,24.98-8.41,6.03-18,9.04-28.78,9.04-12.37,0-22.44-2.69-30.21-8.09-7.77-5.39-13.52-12.69-17.25-21.88-3.73-9.19-5.59-19.5-5.59-30.92s1.86-22.79,5.59-33.18c3.72-10.38,9.67-18.83,17.84-25.33,8.17-6.5,18.83-9.75,31.99-9.75,8.72,0,16.57,1.9,23.55,5.71,6.98,3.81,11.89,10.07,14.75,18.79h2.38v-48.05c0-5.07-.36-9.91-1.07-14.51-.71-4.6-2.46-8.36-5.23-11.3-2.78-2.93-7.42-4.4-13.92-4.4-4.76,0-8.29,1.23-10.58,3.69-2.3,2.46-3.81,5.55-4.52,9.28-.71,3.73-1.07,7.57-1.07,11.54,0,2.38.08,4.68.24,6.9v.71c0,3.81-1.98,5.63-5.95,5.47h-29.73c-3.01,0-4.92-1.5-5.71-4.52-1.27-5.55-1.9-11.18-1.9-16.89,0-8.72,1.86-15.74,5.59-21.05,3.72-5.31,8.6-9.4,14.63-12.25,6.02-2.85,12.64-4.76,19.86-5.71,7.21-.95,14.31-1.43,21.29-1.43,9.83,0,18.23.83,25.21,2.5,6.98,1.67,12.8,4.24,17.48,7.73,4.68,3.49,8.33,7.93,10.94,13.32,2.62,5.39,4.48,11.7,5.59,18.91,1.11,7.22,1.67,15.5,1.67,24.86v111.32c0,3.49.36,6.42,1.07,8.8.71,2.38,2.34,3.96,4.88,4.76,1.9.48,3.37,1.23,4.4,2.26,1.03,1.03,1.55,2.58,1.55,4.64v1.9c0,4.28-2.06,6.34-6.18,6.18h-45.67Zm-2.85-70.17c0-6.18-1.03-12.01-3.09-17.48-2.06-5.47-5.27-9.91-9.63-13.32-4.36-3.41-10.03-5.11-17.01-5.11s-12.29,2.3-15.46,6.9c-3.17,4.6-5.15,10.03-5.95,16.29-.8,6.27-1.19,12.09-1.19,17.48,0,3.81.16,8.17.48,13.08.32,4.92,1.19,9.63,2.62,14.15,1.43,4.52,3.65,8.29,6.66,11.3,3.01,3.01,7.21,4.52,12.61,4.52,6.82,0,12.45-1.98,16.89-5.95,4.44-3.96,7.73-8.96,9.87-14.99,2.14-6.02,3.21-11.97,3.21-17.84v-9.04Z"/>
          <path class="cls-2" d="m1082.47,216.14c4.28,0,6.34,2.06,6.18,6.18v1.9c0,1.43-.24,2.54-.71,3.33-.48.8-1.11,1.47-1.9,2.02-.79.56-1.82,1.15-3.09,1.78-1.59.48-2.38,1.83-2.38,4.04,0,.48.08,1.03.24,1.67,7.93,42.82,11.89,97.29,11.89,163.41h2.38l28.31-179.11c.48-3.49,2.46-5.23,5.95-5.23h35.68c3.65,0,5.63,1.75,5.95,5.23l28.31,179.11h2.38c0-31.4.75-59.23,2.26-83.49,1.5-24.26,4.4-48.36,8.68-72.31.79-2.69,1.19-5.15,1.19-7.37,0-2.38-.87-4.28-2.62-5.71-1.75-.95-3.09-1.9-4.04-2.85s-1.43-2.46-1.43-4.52v-1.9c0-4.28,2.06-6.34,6.18-6.18h54.23c4.28,0,6.34,2.06,6.18,6.18v1.9c0,2.06-.52,3.61-1.55,4.64s-2.5,1.78-4.4,2.26c-4.92,1.27-7.85,5.71-8.8,13.32l-24.02,169.83c-.32,3.49-2.3,5.23-5.95,5.23h-45.67c-2.54,0-4.36-1.19-5.47-3.57-9.83-23.79-16.93-52.25-21.29-85.39-4.36-33.14-6.54-64.94-6.54-95.38h-2.38c0,30.45-2.22,62.24-6.66,95.38-4.44,33.15-11.58,61.61-21.41,85.39-.95,2.38-2.78,3.57-5.47,3.57h-45.67c-3.49,0-5.47-1.74-5.95-5.23l-24.74-172.69c-.64-6.34-3.41-9.91-8.33-10.7-1.9-.32-3.37-.99-4.4-2.02-1.03-1.03-1.55-2.58-1.55-4.64v-1.9c0-4.28,2.06-6.34,6.18-6.18h54.23Z"/>
        </g>
        <path class="cls-2" d="m874.34,398.73c-1.67-1.54-4.04-2.69-7.12-3.46-6.41-2.31-10.9-8.6-13.47-18.86l-35.02-121.23c-2.05-7.44-4.3-13.79-6.73-19.05-2.44-5.26-5.33-9.56-8.66-12.89s-7.57-5.97-12.7-7.89c-5.14-1.93-11.42-3.28-18.86-4.05-7.45-.77-16.42-1.15-26.94-1.15v-4.62c27.19,0,48.11-6.73,62.73-20.2,14.63-13.47,21.94-36.24,21.94-68.32,0-24.88-1.93-45.02-5.77-60.42-3.85-15.39-10.4-27.19-19.63-35.4-9.24-8.21-21.69-13.79-37.33-16.75C751.12,1.5,731.5.02,707.89.02h-122c-6.67-.25-10,3.08-10,10v3.08c0,3.34.83,5.84,2.5,7.51,1.66,1.67,4.04,2.88,7.12,3.65,4.36,1.54,7.05,4.11,8.08,7.7,1.02,3.6,1.54,7.96,1.54,13.09v329.43c0,3.34-.13,6.35-.39,9.05-.25,2.69-1.09,5.07-2.5,7.12-1.41,2.05-3.65,3.59-6.73,4.62-3.08.77-5.46,1.92-7.12,3.46-1.67,1.54-2.5,4.11-2.5,7.7v3.08c-.26,6.67,3.08,10,10,10h95.45c6.67.26,10-3.08,10-10v-3.08c0-3.59-.83-6.16-2.5-7.7-1.67-1.54-4.04-2.69-7.12-3.46-3.08-1.03-5.32-2.57-6.73-4.62-1.42-2.05-2.25-4.55-2.5-7.51-.26-2.94-.39-6.21-.39-9.81v-135.85h25.4c12.32,0,22.32,1.92,30.02,5.77,7.7,3.85,14.24,10.91,19.63,21.16,5.39,10.27,10.45,24.64,15.2,43.11,4.75,18.47,10.33,42.21,16.74,71.2.51,2.56.77,4.75.77,6.54,0,5.65-1.92,8.98-5.77,10.01-2.83,1.02-5.07,2.25-6.74,3.65-1.67,1.42-2.5,3.92-2.5,7.51v3.08c-.26,6.67,3.08,10,10.01,10h91.98c6.67.26,10.01-3.08,10.01-10v-3.08c0-3.59-.84-6.16-2.51-7.7Zm-96.68-317.03c6.9,22.61,4.04,43.85-8.76,63.74-1.62,2.51-1.67,2.48-3.15-.07-12.23-21.18-24.46-42.37-36.68-63.56-.45-.78-.87-1.58-1.4-2.54,1.04-.69,1.96-.43,2.83-.43,14.41-.02,28.82.05,43.23-.08,2.35-.02,3.28.81,3.93,2.94Zm-54.96-49.06c23.42,5.33,40.48,18.73,51.32,40.13.28.54.7,1.08.42,2.04-.82,0-1.7,0-2.58,0-24.5,0-49,0-73.5,0q-3.1,0-1.5-2.78c7.2-12.49,14.45-24.96,21.55-37.51,1.1-1.94,2.17-2.35,4.3-1.87Zm-70.25,23.7c16.13-17.77,36.17-26.12,60.14-25.04.88.04,1.82-.04,2.79.69-13.12,22.73-26.24,45.47-39.32,68.14-.93-.11-1.03-.74-1.28-1.17-7.53-13.03-15.03-26.09-22.61-39.1-.82-1.41-.82-2.3.28-3.52Zm-14.11,72.22c-7.45-23.57-4.44-45.61,9.41-66.12.15-.22.36-.4.83-.91,13.27,23,26.38,45.72,39.49,68.43-1.02.67-1.85.45-2.64.45-14.59.02-29.19,0-43.78.02-1.49,0-2.69.07-3.3-1.87Zm58.73,46.42c-.69,1.2-1.19,2.24-3.06,1.83-24.32-5.24-41.93-18.99-52.8-41.36-.07-.15-.06-.34-.16-1h2.56c24.59,0,49.17,0,73.76,0,3.06,0,3.07.02,1.59,2.59-7.3,12.65-14.61,25.29-21.89,37.94Zm5.65,2.96c-1.32-.07-2.92.16-1.57-2.17,12.79-22.03,25.51-44.11,38.25-66.17.09-.15.23-.28.66-.78,2.32,4,4.48,7.75,6.65,11.5,5.58,9.66,11.12,19.33,16.77,28.95.88,1.49.87,2.45-.32,3.75-16.24,17.81-36.38,26.11-60.44,24.92Z"/>
      </g>
      <g>
        <g>
          <path class="cls-1" d="m229.53,299.98h-58.5c-11.32,0-21.78-3.68-29.97-10.46-3.07.62-6.25.95-9.52.95h-26.88c-3.23,0-6.38-.31-9.42-.92-7.87,6.58-18.13,10.45-29.64,10.45-.3,0-.61,0-.92,0H6.19c-13.09,0-25.04-4.93-33.64-13.87-8.34-8.66-12.77-20.28-12.54-32.8v-1.41c0-12.17,4.2-23.27,11.89-31.62V40.29c-7.68-8.4-11.89-19.5-11.89-31.49v-1.9c0-26.33,19.67-46.19,45.76-46.19.3,0,.61,0,.92,0h56.12c18.3,0,34.56,10.56,41.91,27.06,4.67,9.89,9.19,20.21,13.51,30.87,4.41-10.87,9.01-21.38,13.77-31.43,7.7-16.35,23.64-26.5,41.65-26.5h56.37c13.08,0,25.02,4.92,33.63,13.86,8.34,8.66,12.78,20.28,12.56,32.81v1.42c0,11.99-4.21,23.09-11.89,31.49v179.99c7.71,8.39,11.89,19.47,11.89,31.62v1.9c0,26.33-19.67,46.19-45.75,46.19-.3,0-.61,0-.92,0Z"/>
          <path class="cls-1" d="m307.55,299.98h-53.74c-13.09,0-25.04-4.93-33.64-13.87-8.33-8.67-12.77-20.28-12.54-32.8v-1.41c0-12.18,4.2-23.27,11.89-31.63v-113.61c-7.69-8.4-11.89-19.5-11.89-31.49v-3.09c0-12.35,4.68-23.55,12.58-31.81-.17-1.82-.24-3.67-.21-5.54V6.9c0-26.33,19.67-46.19,45.76-46.19.3,0,.61,0,.92,0h29.96c13.08,0,25.02,4.92,33.63,13.86,8.34,8.66,12.78,20.28,12.56,32.81v27.82c0,5.35-.81,10.42-2.32,15.12,1.2,4.28,1.84,8.86,1.84,13.66v156.29c7.71,8.39,11.89,19.47,11.89,31.62v1.9c0,26.33-19.67,46.19-45.76,46.19-.3,0-.61,0-.92,0Z"/>
          <path class="cls-1" d="m392.43,299.99c-.3,0-.61,0-.92,0h-53.74c-13.09,0-25.04-4.93-33.64-13.87-8.33-8.67-12.77-20.28-12.54-32.8v-1.41c0-12.18,4.2-23.27,11.89-31.63v-81.24c-4.53-2.26-8.65-5.26-12.19-8.95-8.34-8.66-12.77-20.28-12.54-32.8v-10.93c0-7.91,1.77-15.23,4.96-21.61-2.49-7.57-3.77-15.67-3.77-24.06,0-21.05,7.56-39.35,21.86-52.92,10.89-10.34,24.06-17.82,39.16-22.23,12.56-3.67,24.93-5.53,36.78-5.53s22.23.84,31.61,2.56c10.76,1.98,20.38,5.14,28.61,9.39,9.35,4.83,17.23,10.95,23.43,18.19,6.42,7.5,11.15,16.05,14.04,25.43,2.45,7.96,3.68,16.31,3.68,24.87s-.94,16.72-2.81,25.34c-.13.59-.27,1.17-.42,1.75-2.44,9.26-7.44,17.16-14.14,23.03v7.21c0,22.73-14.66,40.64-35.44,45.11v77.4c7.71,8.39,11.89,19.47,11.89,31.62v1.9c0,26.33-19.67,46.19-45.76,46.19Z"/>
          <path class="cls-1" d="m570.11,299.99c-.3,0-.61,0-.92,0h-45.18c-6.7,0-13.03-1.44-18.68-4.06-8.61,2.7-17.71,4.06-27.23,4.06-20.63,0-38.46-5.12-53.02-15.23-14.23-9.87-24.83-23.24-31.51-39.73-5.65-13.93-8.51-29.39-8.51-45.93s2.67-32.01,7.94-46.69c3.44-9.6,8.11-18.31,13.95-26.06-.8-1.94-1.47-3.96-2.02-6.05-.11-.41-.21-.81-.3-1.22-1.93-8.44-2.91-17.13-2.91-25.82,0-17.06,4.32-31.87,12.84-44.02,7.73-11.03,17.91-19.59,30.26-25.43,9.75-4.62,20.44-7.72,31.75-9.21,8.91-1.17,17.83-1.77,26.51-1.77,13.09,0,24.37,1.17,34.5,3.59,12.26,2.93,23.06,7.83,32.1,14.56,9.86,7.36,17.6,16.75,23.02,27.92,4.36,8.98,7.43,19.17,9.14,30.3,1.41,9.21,2.13,19.62,2.13,30.94v100.28c7.68,8.41,11.89,19.51,11.89,31.49v1.9c0,26.33-19.67,46.19-45.76,46.19Z"/>
        </g>
        <path class="cls-1" d="m904.93,235.75h-56.55c-17.52,0-28.47-7.68-34.57-14.12-7.96-8.41-12.17-19.41-11.92-31.13v-.83c0-11.87,4.55-22.96,12.49-31.1v-70.84c-8.01-8.16-12.49-19.11-12.49-31.01v-2.33c0-12.35,4.82-23.35,12.98-31.33V5.36c0-25.46,19.79-44.66,46.04-44.66.28,0,.56,0,.84,0h31.58c17.5,0,28.45,7.67,34.55,14.1,7.97,8.4,12.18,19.41,11.94,31.14v20.71c0,4.14-.52,8.12-1.51,11.87.67,3.15,1.01,6.43,1.01,9.78v110.27c7.94,8.14,12.49,19.23,12.49,31.09v1.43c0,25.46-19.79,44.66-46.04,44.66-.28,0-.56,0-.84,0Z"/>
        <g>
          <path class="cls-1" d="m1024.39,459.52c-.3,0-.61,0-.92,0h-45.18c-6.7,0-13.03-1.44-18.68-4.06-8.61,2.7-17.71,4.06-27.23,4.06-20.63,0-38.46-5.12-53.02-15.23-14.23-9.87-24.83-23.24-31.51-39.73-5.65-13.93-8.51-29.39-8.51-45.93s2.67-32.01,7.94-46.69c3.44-9.59,8.11-18.31,13.95-26.06-.8-1.94-1.47-3.96-2.02-6.06-.11-.4-.21-.81-.3-1.22-1.93-8.44-2.91-17.13-2.91-25.82,0-17.06,4.32-31.87,12.84-44.02,7.73-11.03,17.91-19.59,30.26-25.43,9.75-4.62,20.44-7.72,31.75-9.21,8.9-1.17,17.83-1.77,26.51-1.77,13.09,0,24.37,1.17,34.5,3.59,12.26,2.93,23.06,7.83,32.1,14.56,9.86,7.36,17.6,16.75,23.02,27.92,4.36,8.98,7.43,19.17,9.14,30.3,1.41,9.21,2.13,19.62,2.13,30.94v100.28c7.68,8.41,11.89,19.51,11.89,31.49v1.9c0,26.33-19.67,46.19-45.76,46.19Z"/>
          <path class="cls-1" d="m1181.9,459.51c-13.59,0-26-5.78-34.58-15.64-8.53,9.79-21.01,15.64-34.64,15.64h-45.67c-23.57,0-42.28-16.29-45.55-39.64l-22.89-159.77c-1.15-.95-2.25-1.95-3.31-3.01-8.5-8.5-13.21-20.19-13.21-32.87v-1.9c0-26.33,19.67-46.19,45.76-46.19.3,0,.61,0,.92,0h53.74c8.54,0,16.59,2.1,23.55,6.04,6.78-3.88,14.73-6.04,23.31-6.04h35.68c8.53,0,16.44,2.15,23.2,5.98,6.73-3.83,14.63-5.99,23.23-5.99.3,0,.61,0,.92,0h53.74c13.08,0,25.02,4.92,33.63,13.86,8.34,8.66,12.78,20.28,12.56,32.8v1.42c0,12.68-4.71,24.37-13.26,32.92-1.06,1.06-2.16,2.06-3.31,3.01l-22.51,159.12c-2.79,23.39-21.78,40.23-45.64,40.23h-45.67Z"/>
        </g>
        <path class="cls-1" d="m867.55,459.52c-.42,0-.84,0-1.27-.01h-91.42c-14.4,0-27.4-5.28-36.63-14.87-4.48-4.66-7.91-10.16-10.17-16.22-2.6,6.96-6.34,12.15-9.71,15.79-9.15,9.87-22.05,15.31-36.3,15.31-.42,0-.84,0-1.27-.01h-94.89c-14.39,0-27.4-5.28-36.62-14.87-8.94-9.3-13.68-21.94-13.38-35.68v-2.53c0-19.85,9.55-31.7,15.31-37.03h0c1.25-1.16,2.57-2.26,3.93-3.29V53.3c-1.77-1.36-3.46-2.84-5.04-4.42-9.16-9.17-14.2-21.87-14.2-35.78v-3.08c0-17.14,7.09-28.36,13.04-34.75,9.15-9.84,22.04-15.26,36.28-15.26.41,0,.82,0,1.23.01h121.46c26.29,0,47.97,1.67,66.27,5.11,22.85,4.32,41.84,13.12,56.52,26.16,15.33,13.64,26.05,32.34,31.87,55.59,4.69,18.81,6.97,41.74,6.97,70.13,0,38.87-9.33,69.25-27.77,90.46,2.41,3.67,4.59,7.62,6.54,11.83,3.39,7.34,6.31,15.51,8.94,25.01l33.99,117.68c3.74,2.05,7.16,4.5,10.23,7.33,9.93,9.16,15.4,22.34,15.4,37.11v3.08c0,17.12-7.08,28.33-13.01,34.73-9.15,9.86-22.04,15.29-36.29,15.29,0,0,0,0,0,0Zm-155.45-93.42c1.34,1.01,2.62,2.08,3.84,3.21,3.64,3.36,8.83,9.33,12.15,18.31,2.34-6.27,5.62-11.09,8.73-14.63-4.98-22.08-9.41-40.71-13.22-55.51-4.72-18.35-8.81-28.43-11.51-33.77v82.39Z"/>
      </g>
      <g>
        <g>
          <path class="cls-2" d="m6.19,259.98c-4.28,0-6.34-2.06-6.18-6.18v-1.9c0-2.22.51-3.81,1.55-4.76,1.03-.95,2.5-1.67,4.4-2.14,2.85-.95,4.56-2.62,5.11-5,.55-2.38.83-5.23.83-8.56V28.54c0-3.17-.32-5.87-.95-8.09-.64-2.22-2.3-3.81-5-4.76-1.9-.48-3.37-1.23-4.4-2.26C.52,12.41,0,10.86,0,8.8v-1.9C0,2.62,2.07.56,6.19.71h56.61c2.69,0,4.52,1.19,5.47,3.57,8.72,18.4,16.77,38.18,24.14,59.35,7.37,21.17,13.32,44.24,17.84,69.22,4.52,24.98,6.78,52.29,6.78,81.94h2.38c0-29.65,2.26-56.97,6.78-81.94s10.47-48.05,17.84-69.22c7.37-21.17,15.42-40.95,24.14-59.35,1.11-2.38,2.93-3.57,5.47-3.57h56.37c4.28,0,6.34,2.06,6.18,6.18v1.9c0,2.06-.52,3.61-1.55,4.64s-2.5,1.78-4.4,2.26c-2.85.95-4.56,2.62-5.11,5-.56,2.38-.83,5.23-.83,8.56v202.9c0,3.01.32,5.67.95,7.97.63,2.3,2.3,3.92,5,4.88,1.9.48,3.37,1.19,4.4,2.14,1.03.95,1.55,2.54,1.55,4.76v1.9c0,4.28-2.06,6.34-6.18,6.18h-58.99c-4.28,0-6.34-2.06-6.18-6.18v-1.9c0-2.22.51-3.81,1.55-4.76,1.03-.95,2.5-1.67,4.4-2.14,2.85-.95,4.56-2.62,5.11-5,.55-2.38.83-5.23.83-8.56.63-35.68,1.9-61.33,3.81-76.95,1.9-15.62,3.72-30.45,5.47-44.48,1.74-14.03,2.62-38.57,2.62-73.62h-2.38l-48.76,209.32c-.8,3.17-2.78,4.76-5.95,4.76h-26.88c-3.01,0-5-1.58-5.95-4.76L49.96,36.39h-2.38c0,35.05.91,59.7,2.74,73.98,1.82,14.27,3.65,29.22,5.47,44.84,1.82,15.62,3.05,41.03,3.69,76.23,0,2.22.08,4.25.24,6.07.16,1.82.67,3.37,1.55,4.64.87,1.27,2.26,2.22,4.16,2.85,1.9.48,3.37,1.19,4.4,2.14,1.03.95,1.55,2.54,1.55,4.76v1.9c0,4.28-2.06,6.34-6.18,6.18H6.19Z"/>
          <path class="cls-2" d="m253.81,259.98c-4.28,0-6.34-2.06-6.18-6.18v-1.9c0-2.22.51-3.81,1.55-4.76,1.03-.95,2.5-1.67,4.4-2.14,2.85-.95,4.56-2.62,5.11-5,.55-2.38.83-5.23.83-8.56V94.91c0-3.17-.32-5.87-.95-8.09-.64-2.22-2.3-3.81-5-4.76-1.9-.48-3.37-1.23-4.4-2.26-1.03-1.03-1.55-2.58-1.55-4.64v-3.09c0-3.33,1.67-5.31,5-5.95l42.58-8.09c.79-.16,1.51-.24,2.14-.24,3.33,0,5,2.06,5,6.18v167.45c0,2.22.08,4.25.24,6.07.16,1.82.67,3.37,1.55,4.64.87,1.27,2.26,2.22,4.16,2.85,1.9.48,3.37,1.19,4.4,2.14,1.03.95,1.55,2.54,1.55,4.76v1.9c0,4.28-2.06,6.34-6.18,6.18h-54.23Zm49-224.78c0,4.28-2.06,6.34-6.18,6.18h-30.45c-4.28,0-6.34-2.06-6.18-6.18V6.9c0-4.28,2.06-6.34,6.18-6.18h30.45c4.28,0,6.34,2.06,6.18,6.18v28.31Z"/>
          <path class="cls-2" d="m337.77,259.98c-4.28,0-6.34-2.06-6.18-6.18v-1.9c0-2.22.51-3.81,1.55-4.76,1.03-.95,2.5-1.67,4.4-2.14,2.53-.79,4.16-2.34,4.88-4.64.71-2.3,1.07-5.27,1.07-8.92v-127.49h-18.55c-4.28,0-6.34-2.06-6.18-6.18v-11.42c0-4.28,2.06-6.34,6.18-6.18h37.34v-2.38c-7.3,0-14.15-1.46-20.58-4.4-6.42-2.93-11.66-7.17-15.7-12.73-4.04-5.55-6.07-12.21-6.07-19.98,0-9.99,3.13-17.96,9.4-23.91,6.26-5.95,13.87-10.23,22.83-12.84,8.96-2.62,17.48-3.92,25.57-3.92,9.35,0,17.48.64,24.38,1.9,6.9,1.27,12.73,3.13,17.48,5.59,4.76,2.46,8.56,5.35,11.42,8.68,2.85,3.33,4.91,7.06,6.18,11.18,1.27,4.12,1.9,8.48,1.9,13.08,0,5.39-.64,11.02-1.9,16.89-.79,3.01-2.78,4.52-5.95,4.52h-29.5c-4.28,0-6.34-2.06-6.18-6.18,0-5.55-.32-10.7-.95-15.46-.64-4.76-2.22-8.6-4.76-11.54-2.54-2.93-6.58-4.4-12.13-4.4-7.77,0-12.96,2.02-15.58,6.07-2.62,4.04-3.92,9.72-3.92,17.01,0,6.66,1.9,12.09,5.71,16.29,3.81,4.2,8.64,7.53,14.51,9.99,5.87,2.46,12.13,4.16,18.79,5.11s12.76,1.43,18.32,1.43c4.28,0,6.34,2.06,6.18,6.18v11.42c0,4.28-2.06,6.34-6.18,6.18h-29.26v127.97c0,3.49.39,6.34,1.19,8.56.79,2.22,2.38,3.73,4.76,4.52,1.9.48,3.37,1.19,4.4,2.14,1.03.95,1.55,2.54,1.55,4.76v1.9c0,4.28-2.06,6.34-6.18,6.18h-54.23Z"/>
          <path class="cls-2" d="m524.02,259.98c-1.9,0-3.01-.87-3.33-2.62v-2.85c0-5.07.95-9.87,2.85-14.39,1.9-4.52,3.01-9.24,3.33-14.15h-2.38c-3.33,10.63-9.2,18.95-17.6,24.98-8.41,6.03-18,9.04-28.78,9.04-12.37,0-22.44-2.69-30.21-8.09-7.77-5.39-13.52-12.69-17.25-21.88-3.73-9.19-5.59-19.5-5.59-30.92s1.86-22.79,5.59-33.18c3.72-10.38,9.67-18.83,17.84-25.33,8.17-6.5,18.83-9.75,31.99-9.75,8.72,0,16.57,1.9,23.55,5.71,6.98,3.81,11.89,10.07,14.75,18.79h2.38v-48.05c0-5.07-.36-9.91-1.07-14.51-.71-4.6-2.46-8.36-5.23-11.3-2.78-2.93-7.42-4.4-13.92-4.4-4.76,0-8.29,1.23-10.58,3.69-2.3,2.46-3.81,5.55-4.52,9.28-.71,3.73-1.07,7.57-1.07,11.54,0,2.38.08,4.68.24,6.9v.71c0,3.81-1.98,5.63-5.95,5.47h-29.73c-3.01,0-4.92-1.5-5.71-4.52-1.27-5.55-1.9-11.18-1.9-16.89,0-8.72,1.86-15.74,5.59-21.05,3.72-5.31,8.6-9.4,14.63-12.25,6.02-2.85,12.64-4.76,19.86-5.71,7.21-.95,14.31-1.43,21.29-1.43,9.83,0,18.23.83,25.21,2.5,6.98,1.67,12.8,4.24,17.48,7.73,4.68,3.49,8.33,7.93,10.94,13.32,2.62,5.39,4.48,11.7,5.59,18.91,1.11,7.22,1.67,15.5,1.67,24.86v111.32c0,3.49.36,6.42,1.07,8.8.71,2.38,2.34,3.96,4.88,4.76,1.9.48,3.37,1.23,4.4,2.26,1.03,1.03,1.55,2.58,1.55,4.64v1.9c0,4.28-2.06,6.34-6.18,6.18h-45.67Zm-2.85-70.17c0-6.18-1.03-12.01-3.09-17.48-2.06-5.47-5.27-9.91-9.63-13.32-4.36-3.41-10.03-5.11-17.01-5.11s-12.29,2.3-15.46,6.9c-3.17,4.6-5.15,10.03-5.95,16.29-.8,6.27-1.19,12.09-1.19,17.48,0,3.81.16,8.17.48,13.08.32,4.92,1.19,9.63,2.62,14.15,1.43,4.52,3.65,8.29,6.66,11.3,3.01,3.01,7.21,4.52,12.61,4.52,6.82,0,12.45-1.98,16.89-5.95,4.44-3.96,7.73-8.96,9.87-14.99,2.14-6.02,3.21-11.97,3.21-17.84v-9.04Z"/>
        </g>
        <path class="cls-2" d="m848.38,195.75c-4.49,0-6.66-1.55-6.49-4.65v-1.43c0-1.67.54-2.86,1.62-3.58,1.08-.72,2.62-1.25,4.62-1.61,3-.72,4.78-1.97,5.37-3.76.58-1.79.87-3.94.87-6.44v-102.71c0-2.39-.34-4.41-1-6.08-.67-1.67-2.42-2.86-5.24-3.58-2-.36-3.54-.92-4.62-1.7-1.08-.77-1.62-1.94-1.62-3.49v-2.33c0-2.51,1.75-3.99,5.24-4.47l44.7-6.08c.83-.12,1.58-.18,2.25-.18,3.5,0,5.24,1.55,5.24,4.65v125.97c0,1.67.08,3.19.25,4.56.16,1.37.71,2.54,1.62,3.49.91.96,2.37,1.67,4.37,2.15,2,.36,3.54.89,4.62,1.61,1.08.72,1.62,1.91,1.62,3.58v1.43c0,3.22-2.17,4.77-6.49,4.65h-56.94Zm51.44-169.1c0,3.22-2.17,4.77-6.49,4.65h-31.96c-4.49,0-6.66-1.55-6.49-4.65V5.36c0-3.22,2.16-4.77,6.49-4.65h31.96c4.49,0,6.66,1.55,6.49,4.65v21.29Z"/>
        <g>
          <path class="cls-2" d="m978.29,419.51c-1.9,0-3.01-.87-3.33-2.62v-2.85c0-5.07.95-9.87,2.85-14.39,1.9-4.52,3.01-9.24,3.33-14.15h-2.38c-3.33,10.63-9.2,18.95-17.6,24.98-8.41,6.03-18,9.04-28.78,9.04-12.37,0-22.44-2.69-30.21-8.09-7.77-5.39-13.52-12.69-17.25-21.88-3.73-9.19-5.59-19.5-5.59-30.92s1.86-22.79,5.59-33.18c3.72-10.38,9.67-18.83,17.84-25.33,8.17-6.5,18.83-9.75,31.99-9.75,8.72,0,16.57,1.9,23.55,5.71,6.98,3.81,11.89,10.07,14.75,18.79h2.38v-48.05c0-5.07-.36-9.91-1.07-14.51-.71-4.6-2.46-8.36-5.23-11.3-2.78-2.93-7.42-4.4-13.92-4.4-4.76,0-8.29,1.23-10.58,3.69-2.3,2.46-3.81,5.55-4.52,9.28-.71,3.73-1.07,7.57-1.07,11.54,0,2.38.08,4.68.24,6.9v.71c0,3.81-1.98,5.63-5.95,5.47h-29.73c-3.01,0-4.92-1.5-5.71-4.52-1.27-5.55-1.9-11.18-1.9-16.89,0-8.72,1.86-15.74,5.59-21.05,3.72-5.31,8.6-9.4,14.63-12.25,6.02-2.85,12.64-4.76,19.86-5.71,7.21-.95,14.31-1.43,21.29-1.43,9.83,0,18.23.83,25.21,2.5,6.98,1.67,12.8,4.24,17.48,7.73,4.68,3.49,8.33,7.93,10.94,13.32,2.62,5.39,4.48,11.7,5.59,18.91,1.11,7.22,1.67,15.5,1.67,24.86v111.32c0,3.49.36,6.42,1.07,8.8.71,2.38,2.34,3.96,4.88,4.76,1.9.48,3.37,1.23,4.4,2.26,1.03,1.03,1.55,2.58,1.55,4.64v1.9c0,4.28-2.06,6.34-6.18,6.18h-45.67Zm-2.85-70.17c0-6.18-1.03-12.01-3.09-17.48-2.06-5.47-5.27-9.91-9.63-13.32-4.36-3.41-10.03-5.11-17.01-5.11s-12.29,2.3-15.46,6.9c-3.17,4.6-5.15,10.03-5.95,16.29-.8,6.27-1.19,12.09-1.19,17.48,0,3.81.16,8.17.48,13.08.32,4.92,1.19,9.63,2.62,14.15,1.43,4.52,3.65,8.29,6.66,11.3,3.01,3.01,7.21,4.52,12.61,4.52,6.82,0,12.45-1.98,16.89-5.95,4.44-3.96,7.73-8.96,9.87-14.99,2.14-6.02,3.21-11.97,3.21-17.84v-9.04Z"/>
          <path class="cls-2" d="m1082.47,216.14c4.28,0,6.34,2.06,6.18,6.18v1.9c0,1.43-.24,2.54-.71,3.33-.48.8-1.11,1.47-1.9,2.02-.79.56-1.82,1.15-3.09,1.78-1.59.48-2.38,1.83-2.38,4.04,0,.48.08,1.03.24,1.67,7.93,42.82,11.89,97.29,11.89,163.41h2.38l28.31-179.11c.48-3.49,2.46-5.23,5.95-5.23h35.68c3.65,0,5.63,1.75,5.95,5.23l28.31,179.11h2.38c0-31.4.75-59.23,2.26-83.49,1.5-24.26,4.4-48.36,8.68-72.31.79-2.69,1.19-5.15,1.19-7.37,0-2.38-.87-4.28-2.62-5.71-1.75-.95-3.09-1.9-4.04-2.85s-1.43-2.46-1.43-4.52v-1.9c0-4.28,2.06-6.34,6.18-6.18h54.23c4.28,0,6.34,2.06,6.18,6.18v1.9c0,2.06-.52,3.61-1.55,4.64s-2.5,1.78-4.4,2.26c-4.92,1.27-7.85,5.71-8.8,13.32l-24.02,169.83c-.32,3.49-2.3,5.23-5.95,5.23h-45.67c-2.54,0-4.36-1.19-5.47-3.57-9.83-23.79-16.93-52.25-21.29-85.39-4.36-33.14-6.54-64.94-6.54-95.38h-2.38c0,30.45-2.22,62.24-6.66,95.38-4.44,33.15-11.58,61.61-21.41,85.39-.95,2.38-2.78,3.57-5.47,3.57h-45.67c-3.49,0-5.47-1.74-5.95-5.23l-24.74-172.69c-.64-6.34-3.41-9.91-8.33-10.7-1.9-.32-3.37-.99-4.4-2.02-1.03-1.03-1.55-2.58-1.55-4.64v-1.9c0-4.28,2.06-6.34,6.18-6.18h54.23Z"/>
        </g>
        <path class="cls-2" d="m874.34,398.73c-1.67-1.54-4.04-2.69-7.12-3.46-6.41-2.31-10.9-8.6-13.47-18.86l-35.02-121.23c-2.05-7.44-4.3-13.79-6.73-19.05-2.44-5.26-5.33-9.56-8.66-12.89s-7.57-5.97-12.7-7.89c-5.14-1.93-11.42-3.28-18.86-4.05-7.45-.77-16.42-1.15-26.94-1.15v-4.62c27.19,0,48.11-6.73,62.73-20.2,14.63-13.47,21.94-36.24,21.94-68.32,0-24.88-1.93-45.02-5.77-60.42-3.85-15.39-10.4-27.19-19.63-35.4-9.24-8.21-21.69-13.79-37.33-16.75C751.12,1.5,731.5.02,707.89.02h-122c-6.67-.25-10,3.08-10,10v3.08c0,3.34.83,5.84,2.5,7.51,1.66,1.67,4.04,2.88,7.12,3.65,4.36,1.54,7.05,4.11,8.08,7.7,1.02,3.6,1.54,7.96,1.54,13.09v329.43c0,3.34-.13,6.35-.39,9.05-.25,2.69-1.09,5.07-2.5,7.12-1.41,2.05-3.65,3.59-6.73,4.62-3.08.77-5.46,1.92-7.12,3.46-1.67,1.54-2.5,4.11-2.5,7.7v3.08c-.26,6.67,3.08,10,10,10h95.45c6.67.26,10-3.08,10-10v-3.08c0-3.59-.83-6.16-2.5-7.7-1.67-1.54-4.04-2.69-7.12-3.46-3.08-1.03-5.32-2.57-6.73-4.62-1.42-2.05-2.25-4.55-2.5-7.51-.26-2.94-.39-6.21-.39-9.81v-135.85h25.4c12.32,0,22.32,1.92,30.02,5.77,7.7,3.85,14.24,10.91,19.63,21.16,5.39,10.27,10.45,24.64,15.2,43.11,4.75,18.47,10.33,42.21,16.74,71.2.51,2.56.77,4.75.77,6.54,0,5.65-1.92,8.98-5.77,10.01-2.83,1.02-5.07,2.25-6.74,3.65-1.67,1.42-2.5,3.92-2.5,7.51v3.08c-.26,6.67,3.08,10,10.01,10h91.98c6.67.26,10.01-3.08,10.01-10v-3.08c0-3.59-.84-6.16-2.51-7.7Zm-96.68-317.03c6.9,22.61,4.04,43.85-8.76,63.74-1.62,2.51-1.67,2.48-3.15-.07-12.23-21.18-24.46-42.37-36.68-63.56-.45-.78-.87-1.58-1.4-2.54,1.04-.69,1.96-.43,2.83-.43,14.41-.02,28.82.05,43.23-.08,2.35-.02,3.28.81,3.93,2.94Zm-54.96-49.06c23.42,5.33,40.48,18.73,51.32,40.13.28.54.7,1.08.42,2.04-.82,0-1.7,0-2.58,0-24.5,0-49,0-73.5,0q-3.1,0-1.5-2.78c7.2-12.49,14.45-24.96,21.55-37.51,1.1-1.94,2.17-2.35,4.3-1.87Zm-70.25,23.7c16.13-17.77,36.17-26.12,60.14-25.04.88.04,1.82-.04,2.79.69-13.12,22.73-26.24,45.47-39.32,68.14-.93-.11-1.03-.74-1.28-1.17-7.53-13.03-15.03-26.09-22.61-39.1-.82-1.41-.82-2.3.28-3.52Zm-14.11,72.22c-7.45-23.57-4.44-45.61,9.41-66.12.15-.22.36-.4.83-.91,13.27,23,26.38,45.72,39.49,68.43-1.02.67-1.85.45-2.64.45-14.59.02-29.19,0-43.78.02-1.49,0-2.69.07-3.3-1.87Zm58.73,46.42c-.69,1.2-1.19,2.24-3.06,1.83-24.32-5.24-41.93-18.99-52.8-41.36-.07-.15-.06-.34-.16-1h2.56c24.59,0,49.17,0,73.76,0,3.06,0,3.07.02,1.59,2.59-7.3,12.65-14.61,25.29-21.89,37.94Zm5.65,2.96c-1.32-.07-2.92.16-1.57-2.17,12.79-22.03,25.51-44.11,38.25-66.17.09-.15.23-.28.66-.78,2.32,4,4.48,7.75,6.65,11.5,5.58,9.66,11.12,19.33,16.77,28.95.88,1.49.87,2.45-.32,3.75-16.24,17.81-36.38,26.11-60.44,24.92Z"/>
      </g>
    </g>
  </g>
</svg>